<svg width="44" height="40" viewBox="0 0 44 40" fill="none" xmlns="http://www.w3.org/2000/svg">
<path d="M11.1538 38.6111C9.18878 39.7968 6.81717 40.1017 5.42809 39.7121C4.90295 39.5428 4.42863 39.3564 4.00513 39.1362C5.37727 39.5428 7.7997 39.1362 9.62922 37.6626C10.0697 38.0183 10.5779 38.3401 11.1538 38.6111Z" fill="url(#paint0_linear_701_182)"/>
<path d="M40.5618 16.8452C37.5464 23.4512 33.2437 28.2109 29.0087 31.8019C28.9578 32.7504 28.924 37.4255 32.9896 39.1532C35.2426 39.8307 40.4262 38.3063 41.0191 33.3263C41.5104 29.1256 41.3241 18.5221 41.2394 15.2699C41.0361 15.7781 40.8159 16.3031 40.5618 16.8452Z" fill="url(#paint1_linear_701_182)"/>
<path d="M10.6456 27.1268C10.9167 26.9236 11.2216 26.7203 11.4757 26.5679C6.78328 21.6896 4.37779 17.2686 4.37779 17.2686C-1.05996 8.74855 0.667924 4.29373 0.634044 4.36148C-0.9075 8.05407 0.583223 11.7805 2.73461 16.6249C4.71659 21.029 7.22372 24.7724 9.90025 27.8721C9.95107 27.8213 10.4423 27.2962 10.6456 27.1268Z" fill="url(#paint2_linear_701_182)"/>
<path d="M21.7244 20.1143C17.2522 24.3489 12.4413 26.1105 12.4413 26.1105C12.4413 26.1105 12.0008 26.2629 11.4587 26.5847C6.74941 21.7403 4.37781 17.3363 4.37781 17.3363C2.44664 14.4907 -0.365405 8.66383 0.566298 4.56472C1.02368 2.56597 2.5991 0.906001 5.07235 0.313154C12.9156 -1.55008 13.9998 5.41164 14.491 7.74915C15.6599 13.1864 18.6413 17.2347 21.7244 20.1143Z" fill="url(#paint3_linear_701_182)"/>
<path d="M2.73459 16.6419C4.69964 20.9951 7.15594 24.7047 9.81553 27.7875C8.00295 29.6676 5.91932 34.6645 9.64613 37.6626C7.79967 39.1532 5.3603 39.5428 4.0051 39.1363C-0.060517 37.4085 0.0241834 33.0045 0.0241834 31.785V7.22414C0.0241834 7.22414 0.0241854 6.7668 0.142766 6.1062C-0.348496 9.15513 0.888126 12.4751 2.73459 16.6419Z" fill="url(#paint4_linear_701_182)"/>
<path d="M41.2564 15.2527C41.3241 18.5049 41.5274 29.1084 41.0362 33.3092C40.4433 38.306 35.2596 39.8305 33.0066 39.136C30.0929 37.8995 29.2798 35.1385 29.0765 33.3261C29.2628 37.0526 32.3459 39.9999 36.1066 39.9999C40.0028 39.9999 43.1537 36.8493 43.1537 32.9535L43.1367 8.71448C42.9334 10.6963 42.2728 12.8136 41.2564 15.2527Z" fill="url(#paint5_linear_701_182)"/>
<path d="M40.5617 16.845C35.4797 27.9905 26.7387 33.9021 20.8096 37.6963C17.0998 40.0677 13.7795 39.5426 12.9833 39.3054C3.95429 36.7139 8.12154 28.5156 10.6456 27.1436C5.88546 31.7339 10.7642 38.9836 18.455 36.2226C32.007 30.3111 38.9185 17.4887 38.9185 17.4887C40.8497 14.643 43.6618 8.81616 42.7301 4.71704C43.8481 8.49432 42.7301 12.0175 40.5617 16.845Z" fill="url(#paint6_linear_701_182)"/>
<path d="M38.9186 17.4719C38.9186 17.4719 36.5978 21.7743 32.024 26.534C29.3644 29.295 25.9595 32.2084 21.7922 34.5459C20.725 35.1388 19.6239 35.6978 18.4551 36.2059C10.7812 38.9838 6.49538 32.1407 10.0528 27.6858C10.2391 27.4826 10.4424 27.2963 10.6457 27.1269C10.9167 26.9067 11.2047 26.7203 11.4588 26.5679C12.0009 26.2461 12.4413 26.0936 12.4413 26.0936C12.4413 26.0936 17.2354 24.332 21.7245 20.0974C24.7567 17.2348 27.6535 13.2204 28.7885 7.8678C29.2797 5.53029 30.3639 -1.43143 38.2071 0.431806C40.6804 1.02465 42.2728 2.68462 42.7132 4.68336C43.6618 8.81636 40.8328 14.6263 38.9186 17.4719Z" fill="url(#paint7_linear_701_182)"/>
<path d="M29.9742 36.4092C29.9742 36.4092 28.9239 35.071 29.0086 31.8019C29.8048 30.9211 39.647 23.9424 43.1028 8.93494C43.1028 8.93494 43.5602 23.0278 29.9742 36.4092Z" fill="url(#paint8_linear_701_182)"/>
<defs>
<linearGradient id="paint0_linear_701_182" x1="7.58691" y1="39.8754" x2="7.58691" y2="29.7573" gradientUnits="userSpaceOnUse">
<stop offset="0.138" stop-color="#70C5EB"/>
<stop offset="0.4553" stop-color="#3E37C0"/>
</linearGradient>
<linearGradient id="paint1_linear_701_182" x1="35.181" y1="39.2968" x2="35.181" y2="22.8444" gradientUnits="userSpaceOnUse">
<stop stop-color="#4960E5"/>
<stop offset="1" stop-color="#6816AF"/>
</linearGradient>
<linearGradient id="paint2_linear_701_182" x1="0.389548" y1="22.2581" x2="8.71601" y2="12.3009" gradientUnits="userSpaceOnUse">
<stop stop-color="#4E13A5"/>
<stop offset="0.1447" stop-color="#563CB5"/>
<stop offset="0.468" stop-color="#69A1DD"/>
<stop offset="0.5765" stop-color="#70C5EB"/>
<stop offset="0.7255" stop-color="#4960E5"/>
<stop offset="1" stop-color="#E23E83"/>
</linearGradient>
<linearGradient id="paint3_linear_701_182" x1="2.07139" y1="25.2529" x2="14.308" y2="7.39699" gradientUnits="userSpaceOnUse">
<stop stop-color="#4E13A5"/>
<stop offset="1" stop-color="#E23E83"/>
</linearGradient>
<linearGradient id="paint4_linear_701_182" x1="4.90824" y1="39.2977" x2="4.90824" y2="16.5883" gradientUnits="userSpaceOnUse">
<stop stop-color="#4960E5"/>
<stop offset="0.1791" stop-color="#7656C8"/>
<stop offset="0.435" stop-color="#B049A3"/>
<stop offset="0.6244" stop-color="#D4418C"/>
<stop offset="0.7251" stop-color="#E23E83"/>
<stop offset="0.7896" stop-color="#DF3D84"/>
<stop offset="0.8381" stop-color="#D53A88"/>
<stop offset="0.8812" stop-color="#C5358D"/>
<stop offset="0.9213" stop-color="#AE2D96"/>
<stop offset="0.9593" stop-color="#9123A0"/>
<stop offset="0.9952" stop-color="#6D18AD"/>
<stop offset="1" stop-color="#6816AF"/>
</linearGradient>
<linearGradient id="paint5_linear_701_182" x1="36.1056" y1="40.0051" x2="36.1056" y2="14.6621" gradientUnits="userSpaceOnUse">
<stop stop-color="#70C5EB"/>
<stop offset="0.2795" stop-color="#BD6AA5"/>
<stop offset="0.4272" stop-color="#E23E83"/>
<stop offset="0.6108" stop-color="#CA368B"/>
<stop offset="0.8555" stop-color="#AF2D95"/>
<stop offset="1" stop-color="#A52A98"/>
</linearGradient>
<linearGradient id="paint6_linear_701_182" x1="14.7629" y1="35.8878" x2="43.1272" y2="1.96847" gradientUnits="userSpaceOnUse">
<stop stop-color="#4E13A5"/>
<stop offset="0.1568" stop-color="#70C5EB"/>
<stop offset="0.2048" stop-color="#6DBDE7"/>
<stop offset="0.2814" stop-color="#66A5DD"/>
<stop offset="0.3769" stop-color="#5A80CD"/>
<stop offset="0.4876" stop-color="#494BB5"/>
<stop offset="0.5992" stop-color="#350F9B"/>
<stop offset="0.6993" stop-color="#5C1A96"/>
<stop offset="0.9224" stop-color="#BE3488"/>
<stop offset="1" stop-color="#E23E83"/>
</linearGradient>
<linearGradient id="paint7_linear_701_182" x1="15.5285" y1="35.7456" x2="36.2038" y2="5.57579" gradientUnits="userSpaceOnUse">
<stop offset="0.0909225" stop-color="#70C5EB"/>
<stop offset="0.1431" stop-color="#658BD4"/>
<stop offset="0.1954" stop-color="#5B57C0"/>
<stop offset="0.2409" stop-color="#5432B1"/>
<stop offset="0.2776" stop-color="#501BA8"/>
<stop offset="0.3007" stop-color="#4E13A5"/>
<stop offset="1" stop-color="#E23E83"/>
</linearGradient>
<linearGradient id="paint8_linear_701_182" x1="29.15" y1="35.141" x2="40.821" y2="17.1443" gradientUnits="userSpaceOnUse">
<stop stop-color="#350F9B"/>
<stop offset="1" stop-color="#6816AF"/>
</linearGradient>
</defs>
</svg>
