<?xml version="1.0" standalone="no"?>
<!DOCTYPE svg PUBLIC "-//W3C//DTD SVG 20010904//EN"
 "http://www.w3.org/TR/2001/REC-SVG-20010904/DTD/svg10.dtd">
<svg version="1.0" xmlns="http://www.w3.org/2000/svg"
 width="704.000000pt" height="704.000000pt" viewBox="0 0 704.000000 704.000000"
 preserveAspectRatio="xMidYMid meet">
<metadata>
Created by potrace 1.14, written by Peter Selinger 2001-2017
</metadata>
<g transform="translate(0.000000,704.000000) scale(0.100000,-0.100000)"
fill="#000000" stroke="none">
<path d="M1058 6714 c-2 -2 -25 -6 -51 -8 -53 -6 -183 -31 -242 -48 -22 -6
-42 -12 -45 -12 -18 -4 -134 -54 -179 -79 -193 -105 -347 -279 -414 -467 -38
-105 -48 -134 -50 -145 -2 -5 -5 -14 -9 -20 -3 -5 -9 -26 -13 -45 -4 -19 -10
-39 -13 -45 -3 -5 -7 -21 -8 -34 -2 -14 -9 -48 -16 -76 -10 -40 -13 -475 -12
-2170 0 -1867 4 -2239 20 -2267 2 -3 7 -28 10 -54 3 -27 10 -56 15 -66 5 -10
8 -18 5 -18 -7 0 20 -82 55 -166 32 -78 81 -166 106 -192 7 -7 13 -18 13 -23
0 -13 148 -162 200 -201 61 -45 125 -81 250 -137 178 -81 235 -95 385 -95 241
0 399 37 622 145 98 48 104 50 130 35 59 -32 239 -92 328 -110 54 -11 148 -18
235 -18 170 0 312 22 485 74 39 12 72 22 75 23 3 1 22 9 44 18 21 9 40 17 43
17 15 0 169 80 263 137 62 37 121 72 131 78 11 5 19 13 19 17 0 5 4 8 9 8 5 0
51 28 102 62 52 35 101 67 111 73 13 8 110 74 268 182 52 36 355 257 360 263
3 3 23 19 45 35 22 17 42 32 45 35 3 3 23 18 45 35 22 16 42 32 45 35 3 3 28
24 55 45 28 22 52 42 55 45 3 3 17 16 32 28 l26 24 2 -69 c2 -98 8 -188 15
-236 4 -23 9 -55 11 -72 3 -16 14 -64 25 -105 25 -94 23 -89 38 -125 7 -16 17
-40 22 -53 5 -12 24 -47 44 -77 19 -30 31 -55 27 -55 -4 0 -2 -4 3 -8 6 -4 29
-32 51 -62 48 -64 155 -172 214 -215 22 -16 46 -34 53 -40 49 -39 287 -154
287 -140 0 3 12 0 28 -6 15 -6 36 -13 47 -15 180 -41 383 -41 545 1 58 15 111
32 118 37 6 6 12 8 12 4 0 -9 156 71 220 113 77 51 95 66 181 153 172 172 288
414 316 653 8 74 7 4301 -2 4370 -7 54 -13 90 -15 90 -1 0 -3 9 -5 20 -6 31
-18 89 -21 100 -4 16 -15 58 -19 80 -3 12 -13 45 -23 75 -106 305 -349 514
-701 601 -86 21 -96 23 -211 38 -84 11 -282 12 -340 1 -25 -4 -62 -11 -82 -14
-74 -11 -270 -91 -312 -127 -6 -5 -25 -20 -42 -32 -84 -60 -186 -173 -252
-279 -122 -196 -203 -441 -278 -837 -3 -14 -7 -28 -9 -31 -2 -4 -7 -20 -9 -36
-3 -16 -15 -60 -26 -99 -12 -38 -23 -77 -25 -85 -31 -129 -215 -561 -278 -652
-10 -16 -15 -28 -10 -28 4 0 4 -4 -2 -8 -10 -7 -14 -14 -57 -91 -11 -20 -38
-62 -59 -95 -21 -32 -39 -60 -39 -63 0 -2 -5 -9 -10 -16 -6 -7 -36 -48 -67
-92 -31 -44 -60 -82 -63 -85 -3 -3 -27 -34 -55 -70 -104 -135 -388 -439 -411
-440 -12 0 -220 211 -314 320 -36 41 -71 81 -78 88 -30 33 -212 282 -212 291
0 5 -3 11 -8 13 -21 9 -252 405 -252 433 0 7 -4 15 -9 17 -4 2 -27 48 -51 103
-23 55 -50 118 -60 140 -26 59 -120 344 -120 365 0 9 -3 20 -7 24 -4 3 -8 14
-9 22 -2 9 -8 37 -14 63 -15 65 -17 75 -39 176 -11 50 -27 119 -35 155 -9 36
-18 75 -21 87 -31 131 -147 389 -226 502 -42 59 -137 163 -190 206 -44 36
-138 96 -176 111 -21 9 -51 22 -68 28 -45 19 -95 34 -140 42 -22 4 -49 9 -60
11 -25 6 -322 13 -327 7z"/>
</g>
</svg>
